<?xml version="1.0" encoding="UTF-8" standalone="no"?>
<svg width="173px" height="64px" viewBox="0 0 354 132" version="1.1" xmlns="http://www.w3.org/2000/svg" xmlns:xlink="http://www.w3.org/1999/xlink" xmlns:sketch="http://www.bohemiancoding.com/sketch/ns">
    <!-- Generator: Sketch 3.0.4 (8054) - http://www.bohemiancoding.com/sketch -->
    <title>Slice 2</title>
    <desc>Created with Sketch.</desc>
    <defs>
        <path id="path-1" d="M0,-0.042 L353.938,-0.042 L353.938,130.94 L0,130.94 L0,-0.042 Z"></path>
    </defs>
    <g id="Page-1" stroke="none" stroke-width="1" fill="none" fill-rule="evenodd" sketch:type="MSPage">
        <g id="innoQ-Logo-4c" sketch:type="MSLayerGroup">
            <g id="Group-3">
                <mask id="mask-2" sketch:name="Clip 2" fill="white">
                    <use xlink:href="#path-1"></use>
                </mask>
                <g id="Clip-2"></g>
                <path d="M240.552,17.614 L353.938,17.614 L353.938,130.94 L240.552,130.94 L240.552,17.614 Z" id="Fill-1" fill="#97C86B" sketch:type="MSShapeGroup" mask="url(#mask-2)"></path>
            </g>
            <path d="M222.986,-0.042 L336.372,-0.042 L336.372,113.344 L222.986,113.344 L222.986,-0.042 Z" id="Fill-4" fill="#F6BC5B" sketch:type="MSShapeGroup"></path>
            <path d="M200.483,80.358 C200.483,96.248 195.979,102.879 187.847,102.879 C179.591,102.879 174.962,97.499 174.962,79.107 C174.962,63.72 178.714,57.089 187.472,57.089 C195.479,57.089 200.483,62.469 200.483,80.358 L200.483,80.358 Z M215.62,80.108 C215.62,60.092 205.362,46.705 187.347,46.705 C170.583,46.705 159.698,59.716 159.698,79.983 C159.698,100.252 170.458,113.138 187.597,113.138 C204.737,113.138 215.62,100.502 215.62,80.108 L215.62,80.108 Z M146.501,111.511 L146.501,64.22 C146.501,52.585 139.743,46.705 129.985,46.705 C123.23,46.705 117.35,49.708 110.594,55.463 C110.594,52.085 109.843,49.332 108.342,46.455 L95.831,49.958 C97.582,54.462 98.208,58.34 98.208,64.971 L98.208,111.511 L111.72,111.511 L111.72,65.597 C115.848,61.468 121.603,58.465 125.607,58.465 C130.86,58.465 132.862,60.842 132.862,69.475 L132.862,111.511 L146.501,111.511 L146.501,111.511 Z M81.307,111.511 L81.307,64.22 C81.307,52.585 74.551,46.705 64.793,46.705 C58.037,46.705 52.157,49.708 45.401,55.463 C45.401,52.085 44.65,49.332 43.149,46.455 L30.638,49.958 C32.39,54.462 33.015,58.34 33.015,64.971 L33.015,111.511 L46.527,111.511 L46.527,65.597 C50.655,61.468 56.41,58.465 60.414,58.465 C65.669,58.465 67.67,60.842 67.67,69.475 L67.67,111.511 L81.307,111.511 L81.307,111.511 Z M18.14,29.69 C18.14,24.436 14.012,20.432 9.132,20.432 C4.003,20.432 0,24.561 0,29.69 C0,34.695 3.878,38.823 8.882,38.823 C14.012,38.823 18.14,34.695 18.14,29.69 L18.14,29.69 Z M15.888,111.511 L15.888,46.705 L2.001,49.207 L2.001,111.511 L15.888,111.511 L15.888,111.511 Z" id="Fill-5" fill="#0D324F" sketch:type="MSShapeGroup"></path>
            <path d="M301.968,61.876 C301.968,89.235 294.173,100.416 279.021,100.416 C261.663,100.416 255.044,85.852 255.044,59.669 C255.044,35.251 261.517,21.423 278.579,21.423 C296.819,21.423 301.968,37.016 301.968,61.876 L301.968,61.876 Z M321.237,60.846 C321.237,31.132 307.411,8.331 278.728,8.331 C253.278,8.331 236.216,27.16 236.216,60.699 C236.216,90.853 250.483,113.213 279.462,113.213 C281.087,113.213 282.665,113.134 284.204,112.98 C287.493,114.649 290.437,116.475 293.233,118.339 C300.698,123.215 310.907,128.852 321.88,124.281 L326.603,112.548 C316.546,114.377 310.907,112.244 305.271,108.739 C304.306,108.161 303.163,107.472 301.946,106.757 C314.392,98.322 321.237,82.089 321.237,60.846 L321.237,60.846 Z" id="Fill-6" fill="#0D324F" sketch:type="MSShapeGroup"></path>
        </g>
    </g>
</svg>